<svg width="19" height="18" viewBox="0 0 19 18" fill="none" xmlns="http://www.w3.org/2000/svg">
<path id="Vector" d="M9.16501 6.0865C7.646 6.0865 6.41549 7.25433 6.41549 8.695C6.41549 10.136 7.64646 11.3035 9.16501 11.3035C10.6839 11.3035 11.9145 10.1357 11.9145 8.695C11.9145 7.25398 10.6836 6.0865 9.16501 6.0865ZM9.16501 4.3475C11.6949 4.3475 13.7475 6.29266 13.7475 8.695C13.7475 11.0953 11.6972 13.0425 9.16501 13.0425C6.63502 13.0425 4.5825 11.0973 4.5825 8.695C4.5825 6.29477 6.6328 4.3475 9.16501 4.3475ZM15.1223 4.12939C15.1223 4.72944 14.6083 5.21628 13.9766 5.21628C13.3442 5.21628 12.831 4.72869 12.831 4.12939C12.831 3.53008 13.3449 3.04325 13.9766 3.04325C14.6075 3.04249 15.1223 3.53008 15.1223 4.12939ZM9.16501 1.739C6.89713 1.739 6.52749 1.7447 5.47268 1.78926C4.75404 1.82126 4.27231 1.91296 3.82472 2.07782C3.42696 2.22417 3.14003 2.39893 2.83431 2.68897C2.52742 2.98012 2.34354 3.25161 2.1899 3.62915C2.01573 4.05476 1.9191 4.51106 1.88597 5.19191C1.83854 6.15189 1.833 6.48738 1.833 8.695C1.833 10.8466 1.839 11.1972 1.88596 12.1979C1.91972 12.8794 2.0165 13.3371 2.18985 13.7607C2.34451 14.1386 2.5291 14.4114 2.83334 14.7001C3.14144 14.992 3.42845 15.167 3.82262 15.3114C4.27566 15.4775 4.75709 15.5694 5.47254 15.6007C6.48441 15.6457 6.83805 15.651 9.16501 15.651C11.4329 15.651 11.8025 15.6453 12.8572 15.6007C13.574 15.5688 14.0568 15.4768 14.5045 15.3124C14.9017 15.1661 15.1903 14.9904 15.4947 14.7019C15.8028 14.4092 15.987 14.1375 16.1393 13.7627C16.314 13.3345 16.4109 12.8771 16.444 12.1981C16.4914 11.2381 16.497 10.9026 16.497 8.695C16.497 6.54344 16.491 6.19276 16.444 5.19211C16.4103 4.51189 16.3132 4.05317 16.1398 3.62858C15.986 3.25226 15.8011 2.97921 15.4956 2.68897C15.1882 2.39734 14.9028 2.22325 14.5046 2.0776C14.0564 1.9125 13.5747 1.8207 12.8574 1.78927C11.8456 1.74426 11.4919 1.739 9.16501 1.739ZM9.16501 0C11.6548 0 11.9656 0.00869495 12.9433 0.0521699C13.9185 0.0949233 14.5838 0.241286 15.1681 0.456488C15.7721 0.677488 16.2824 0.976014 16.7917 1.45931C17.3004 1.94261 17.6151 2.42808 17.8488 2.99977C18.0748 3.55336 18.2292 4.18519 18.275 5.11049C18.3185 6.03796 18.33 6.33286 18.33 8.695C18.33 11.0572 18.3208 11.352 18.275 12.2795C18.2299 13.2048 18.0748 13.8359 17.8488 14.3902C17.6159 14.9634 17.3004 15.4474 16.7917 15.9307C16.2824 16.4133 15.7699 16.7118 15.1681 16.9335C14.5838 17.148 13.9185 17.2944 12.9433 17.3378C11.9656 17.3791 11.6548 17.39 9.16501 17.39C6.67517 17.39 6.36432 17.3813 5.38672 17.3378C4.41141 17.2951 3.74695 17.148 3.16192 16.9335C2.55855 16.7125 2.04761 16.4133 1.53819 15.9307C1.02877 15.4474 0.714869 14.9612 0.481162 14.3902C0.254329 13.8359 0.100815 13.2048 0.0549901 12.2795C0.0114564 11.352 0 11.0572 0 8.695C0 6.33286 0.00916516 6.03796 0.0549901 5.11049C0.100045 4.18447 0.254329 3.55408 0.481162 2.99977C0.7141 2.42736 1.02877 1.94261 1.53819 1.45931C2.04761 0.976014 2.55932 0.67821 3.16192 0.456488C3.74619 0.241286 4.41065 0.0956449 5.38672 0.0521699C6.36432 0.0108687 6.67517 0 9.16501 0Z" fill="#B0B0B0"/>
</svg>
