<svg width="19" height="18" viewBox="0 0 19 18" fill="none" xmlns="http://www.w3.org/2000/svg">
<path id="Vector" d="M9.38896 0C9.87848 0.00319559 11.1033 0.0172389 12.4046 0.0790529L12.8659 0.102911C14.1761 0.176475 15.4852 0.302147 16.1345 0.516838C17.0006 0.805365 17.6813 1.64725 17.9113 2.71443C18.2777 4.40906 18.3235 7.71659 18.3292 8.51701L18.33 8.68288V8.69451C18.33 8.69451 18.33 8.69853 18.33 8.70625L18.3292 8.87212C18.3235 9.67254 18.2777 12.9801 17.9113 14.6747C17.6781 15.7458 16.9974 16.5877 16.1345 16.8723C15.4852 17.087 14.1761 17.2126 12.8659 17.2862L12.4046 17.31C11.1033 17.3718 9.87848 17.3859 9.38896 17.3891L9.17412 17.39H9.16459C9.16459 17.39 9.16138 17.39 9.15506 17.39L8.9404 17.3891C7.90434 17.3824 3.57242 17.3268 2.19467 16.8723C1.32862 16.5837 0.647921 15.7419 0.417824 14.6747C0.0515095 12.9801 0.00571922 9.67254 0 8.87212V8.51701C0.00571922 7.71659 0.0515095 4.40906 0.417824 2.71443C0.651111 1.6433 1.33181 0.80142 2.19467 0.516838C3.57242 0.0622055 7.90434 0.00676074 8.9404 0H9.38896ZM7.33151 4.89028V12.4988L12.8308 8.69451L7.33151 4.89028Z" fill="#B0B0B0"/>
</svg>
