<svg width="19" height="18" viewBox="0 0 19 18" fill="none" xmlns="http://www.w3.org/2000/svg">
<path id="Vector" d="M15.6163 14.8192H12.902V10.7839C12.902 9.82168 12.8814 8.58341 11.4875 8.58341C10.0723 8.58341 9.85615 9.63049 9.85615 10.7129V14.8192H7.14179V6.52125H9.74923V7.65228H9.78436C10.1487 7.00015 11.0347 6.31184 12.3582 6.31184C15.1085 6.31184 15.6172 8.02916 15.6172 10.2644L15.6163 14.8192ZM4.07613 5.38583C3.2024 5.38583 2.50051 4.71486 2.50051 3.88956C2.50051 3.06499 3.20316 2.39475 4.07613 2.39475C4.9468 2.39475 5.65251 3.06499 5.65251 3.88956C5.65251 4.71486 4.94604 5.38583 4.07613 5.38583ZM5.43713 14.8192H2.71513V6.52125H5.43713V14.8192ZM16.9743 0H1.3526C0.604889 0 0 0.560828 0 1.2528V16.1372C0 16.8298 0.604889 17.39 1.3526 17.39H16.9721C17.719 17.39 18.33 16.8298 18.33 16.1372V1.2528C18.33 0.560828 17.719 0 16.9721 0H16.9743Z" fill="#B0B0B0"/>
</svg>
